# xmcd
#
# Track frame offsets:
#	150
#	19740
#	43931
#	61703
#	80403
#	96491
#	114931
#	131404
#	147879
#	157955
#	176339
#	197508
#	208025
#
# Disc length: 2934 seconds
#
# Revision: 1
# Processed by: cddbd v1.5.2PL0 Copyright (c) Steve Scherf et al.
# Submitted via: audiograbber 1.83.01
#
DISCID=a70b740d
DTITLE=Rosanne Cash - She Remembers Everything (Deluxe Edition)
DYEAR=2018
DGENRE=Country
TTITLE0=The Only Thing Worth Fighting For
TTITLE1=The Undiscovered Country
TTITLE2=Gods Of Harlem
TTITLE3=Rabbit Hole
TTITLE4=Crossing To Jerusalem
TTITLE5=Not Many Miles To Go
TTITLE6=Everyone But Me
TTITLE7=She Remembers Everything
TTITLE8=Particle And Wave
TTITLE9=My Least Favorite Life
TTITLE10=Nothing But The Truth
TTITLE11=Every Day Feels Like A New Goodbye
TTITLE12=The Parting Glass
EXTD=
EXTT0=
EXTT1=
EXTT2=
EXTT3=
EXTT4=
EXTT5=
EXTT6=
EXTT7=
EXTT8=
EXTT9=
EXTT10=
EXTT11=
EXTT12=
PLAYORDER=
